<svg id="Layer_1" data-name="Layer 1" xmlns="http://www.w3.org/2000/svg" viewBox="0 0 2203 402"><defs><style>.cls-1{font-size:306.14px;font-family:Bebas-Regular, Bebas;}.cls-1,.cls-4{fill:#29abe2;}.cls-2{letter-spacing:-0.08em;}.cls-3{letter-spacing:0.01em;}</style></defs><text class="cls-1" transform="translate(487.96 314.4)">Carl <tspan class="cls-2" x="567.58" y="0">T</tspan><tspan x="660.03" y="0">.Mc</tspan><tspan class="cls-3" x="1043.92" y="0">l</tspan><tspan x="1162.39" y="0">amb</tspan></text><path class="cls-4" d="M460.76,339.59a17.24,17.24,0,0,0-1.64-3.77c-11.66-19.27-23.89-38.23-36.88-56.62-3-4.19-9.7-8.08-14.72-8.11q-157.27-.68-314.55,0c-5,0-11.8,3.84-14.75,8-12.81,18.1-24.88,36.76-36.33,55.75a21.75,21.75,0,0,0-2,4.72Zm-260-4.35c.82-5.45,1.51-10,2.31-15.35h94.36c.8,5.34,1.48,9.91,2.29,15.35Zm-98.34-54.52H398l16.28,29.49H86.1Z"/><path class="cls-4" d="M38.87,344.15a17.72,17.72,0,0,0,.54,7.5c.94,2.8,9.09,4.46,14,4.48,65.23.29,130.46.19,195.69.2,66.26,0,132.52.09,198.77-.18,4.6,0,12.09-1.65,13.12-4.44a17.2,17.2,0,0,0,.72-7.56Zm45.61,10.3c-4.58,0-4.57-7.11,0-7.11S89.06,354.45,84.48,354.45Zm11.82,0c-4.58,0-4.58-7.11,0-7.11S100.88,354.45,96.3,354.45Zm12.66,0c-4.58,0-4.58-7.11,0-7.11S113.54,354.45,109,354.45Z"/><path class="cls-4" d="M411.66,73.09c0-21-8.06-29.05-29.2-29.06Q248.65,44,114.84,44c-20.29,0-28.35,8.26-28.36,28.78q0,88.19,0,176.36c0,3.93.54,7.86.86,12.26H410.83c.32-4.68.8-8.33.81-12Q411.7,161.28,411.66,73.09Zm-164.28-23c7,0,7,10.84,0,10.84S240.4,50.08,247.38,50.08Zm142.45,190.1H108.37V65.93H389.83Z"/></svg>